<?xml version="1.0" encoding="UTF-8"?>
<svg width="50px" height="48px" viewBox="0 0 50 48" version="1.1" xmlns="http://www.w3.org/2000/svg" xmlns:xlink="http://www.w3.org/1999/xlink">
    <title>Logo-Adyoulike-Small</title>
    <g id="Page-1" stroke="none" stroke-width="1" fill="none" fill-rule="evenodd">
        <g id="Signature-generator" transform="translate(-85.000000, -68.000000)" fill-rule="nonzero">
            <g id="Logo-Adyoulike-Small" transform="translate(85.294118, 68.000000)">
                <rect id="Rectangle" fill="#000000" x="0.415820308" y="0.0409505242" width="48.2806931" height="47.924378" rx="10"></rect>
                <rect id="Point" fill="#FFFFFF" x="38.739817" y="37.7385522" width="1" height="1"></rect>
                <path d="M13.7673105,38.5992573 L13.7673105,37.7341351 L11.7287009,37.7341351 L11.7287009,32.499948 L10.808274,32.499948 L10.808274,38.5992573 L13.7673105,38.5992573 Z M19.9000898,38.5992573 L19.9000898,32.499948 L18.979663,32.499948 L18.979663,38.5992573 L19.9000898,38.5992573 Z M25.8899391,38.5992573 L25.8899391,36.0749965 L26.0795549,35.8853807 L28.2759383,38.5992573 L29.5084412,38.5992573 L26.7353096,35.2612286 L29.4926399,32.499948 L28.2640873,32.499948 L25.8899391,34.9333513 L25.8899391,32.499948 L24.9695122,32.499948 L24.9695122,38.5992573 L25.8899391,38.5992573 Z M35.9978516,38.5992573 L35.9978516,37.7341351 L33.5525974,37.7341351 L33.5525974,35.9409247 L35.9267456,35.9409247 L35.9267456,35.0758025 L33.5525974,35.0758025 L33.5525974,33.3650703 L35.9978516,33.3650703 L35.9978516,32.499948 L32.6321705,32.499948 L32.6321705,38.5992573 L35.9978516,38.5992573 Z" id="LIKE" fill="#FFFFFF"></path>
                <path d="M12.8614043,26.8315838 L12.8614043,24.1967138 L14.9600708,20.7322745 L13.848524,20.7322745 L12.380287,23.169628 L10.9161975,20.7322745 L9.80465075,20.7322745 L11.8950222,24.1967138 L11.8950222,26.8315838 L12.8614043,26.8315838 Z M19.4330411,26.942193 C20.3231821,26.942193 21.0829622,26.6353841 21.7123815,26.0217662 C22.3391671,25.4107818 22.65256,24.666803 22.65256,23.7898298 C22.65256,22.9181237 22.3404839,22.1715113 21.7163318,21.5499928 C21.0948133,20.9284742 20.3495176,20.6177149 19.4804451,20.6177149 C18.6008383,20.6177149 17.8476421,20.9258407 17.2208564,21.5420922 C16.5914372,22.1583436 16.2767276,22.8957385 16.2767276,23.7542768 C16.2767276,24.7313251 16.6217231,25.5213911 17.311714,26.1244748 C17.9384996,26.6696203 18.6456087,26.942193 19.4330411,26.942193 Z M19.4448921,26.0810211 C18.8549761,26.0810211 18.3348494,25.863753 17.8845119,25.4292167 C17.4315407,24.9946804 17.2050551,24.4403174 17.2050551,23.7661278 C17.2050551,23.1235408 17.42364,22.5836624 17.8608098,22.1464926 C18.2979797,21.7040557 18.8339077,21.4828372 19.4685941,21.4828372 C20.105914,21.4828372 20.6405253,21.7040557 21.072428,22.1464926 C21.5069644,22.586296 21.7242324,23.1314416 21.7242324,23.7819292 C21.7242324,24.4245161 21.5043308,24.9696616 21.0645274,25.4173657 C20.6247239,25.8598026 20.0848455,26.0810211 19.4448921,26.0810211 Z M27.4139169,26.942193 C28.1052767,26.942193 28.6883512,26.7104404 29.1631404,26.246935 C29.5851752,25.8308336 29.7961927,25.3014894 29.7961927,24.6589024 L29.7961927,24.6589024 L29.7961927,20.7322745 L28.8257901,20.7322745 L28.8257901,24.4060813 C28.8257901,24.938059 28.7355524,25.321241 28.555077,25.5556273 C28.2857521,25.9058898 27.9053654,26.0810211 27.4139169,26.0810211 C26.9252449,26.0810211 26.5462465,25.9058898 26.2769216,25.5556273 C26.0964462,25.3133404 26.0062085,24.9301584 26.0062085,24.4060813 L26.0062085,24.4060813 L26.0062085,20.7322745 L25.0358059,20.7322745 L25.0358059,24.6589024 C25.0358059,25.3014894 25.2468234,25.8308336 25.6688583,26.246935 C26.1408709,26.7104404 26.7225571,26.942193 27.4139169,26.942193 Z" id="YOU" fill="#FFFFFF"></path>
                <path d="M10.76172,15.0639102 L11.3769553,13.5825366 L13.7413189,13.5825366 L14.3207847,15.0639102 L15.2329067,15.0639102 L12.5966951,8.58141896 L9.86390576,15.0639102 L10.76172,15.0639102 Z M13.3942078,12.7174144 L11.7271207,12.7174144 L12.5802143,10.6434911 L13.3942078,12.7174144 Z M18.5496695,15.0639102 C19.2007223,15.0639102 19.7035568,15.0072889 20.0581728,14.8940461 C20.4377227,14.7808033 20.8006501,14.5793365 21.1469548,14.2896456 C21.8367937,13.7102639 22.1817132,12.9518006 22.1817132,12.0142556 C22.1817132,11.0793443 21.8506459,10.3248313 21.1885112,9.75071661 C20.8615997,9.46629289 20.4972872,9.26482609 20.0955737,9.14631614 C19.7215646,9.02517275 19.2118041,8.96460099 18.5662921,8.96460099 L18.5662921,8.96460099 L17.2198594,8.96460099 L17.2198594,15.0639102 L18.5496695,15.0639102 Z M18.590528,14.1987881 L18.1402863,14.1987881 L18.1402863,9.8297232 L18.590528,9.8297232 C19.4424137,9.8297232 20.0870453,10.0153888 20.5244229,10.3867197 C21.010398,10.8028211 21.2533856,11.3453332 21.2533856,12.0142556 C21.2533856,12.6779111 21.0075393,13.2164727 20.5158469,13.6299405 C20.275718,13.8300906 20.0070024,13.9762528 19.7097,14.0684272 C19.4123975,14.1553344 19.0393403,14.1987881 18.590528,14.1987881 L18.590528,14.1987881 Z" id="AD" fill="#FFFFFF"></path>
            </g>
        </g>
    </g>
</svg>